<svg width="50" height="50" viewBox="0 0 50 50" fill="none" xmlns="http://www.w3.org/2000/svg">
<circle cx="38.4484" cy="20.0232" r="8.02321" fill="#FFD900"/>
<path fill-rule="evenodd" clip-rule="evenodd" d="M36.6593 38.0976V38.122H12.3219L12.2924 38.1221C7.16037 38.1221 3 33.9617 3 28.8296C3 23.6976 7.16037 19.5372 12.2924 19.5372C12.5959 19.5372 12.896 19.5517 13.1921 19.5802C15.008 15.1335 19.376 12 24.4759 12C30.691 12 35.8192 16.6539 36.5658 22.6669C36.8004 22.6455 37.038 22.6346 37.2782 22.6346C41.5549 22.6346 45.0219 26.1016 45.0219 30.3783C45.0219 34.655 41.5549 38.122 37.2782 38.122C37.0699 38.122 36.8635 38.1138 36.6593 38.0976Z" fill="#9D9D9D"/>
</svg>
