<svg width="50" height="50" viewBox="0 0 50 50" fill="none" xmlns="http://www.w3.org/2000/svg">
<path fill-rule="evenodd" clip-rule="evenodd" d="M38.0166 33.3744V33.399H13.3911V33.3988H13.3911C8.20453 33.3988 4 29.1943 4 24.0078C4 18.8212 8.20453 14.6167 13.3911 14.6167C13.6979 14.6167 14.0012 14.6314 14.3005 14.6602C16.1358 10.1665 20.55 7 25.7038 7C31.9849 7 37.1675 11.7032 37.9221 17.78C38.1593 17.7583 38.3996 17.7473 38.6424 17.7473C42.9645 17.7473 46.4683 21.251 46.4683 25.5732C46.4683 29.8953 42.9645 33.3991 38.6424 33.3991C38.4318 33.3991 38.223 33.3907 38.0166 33.3744Z" fill="white"/>
<path d="M18.3333 36L13 44" stroke="#4758DA" stroke-width="1.5" stroke-linecap="round"/>
<path d="M27.6667 36L22.3334 44" stroke="#4758DA" stroke-width="1.5" stroke-linecap="round"/>
<path d="M37 36L31.6666 44" stroke="#4758DA" stroke-width="1.5" stroke-linecap="round"/>
</svg>
