<svg width="50" height="50" viewBox="0 0 50 50" fill="none" xmlns="http://www.w3.org/2000/svg">
<path fill-rule="evenodd" clip-rule="evenodd" d="M38.0166 30.3744V30.399H13.3911V30.3988H13.3911C8.20453 30.3988 4 26.1943 4 21.0078C4 15.8212 8.20453 11.6167 13.3911 11.6167C13.6979 11.6167 14.0012 11.6314 14.3005 11.6602C16.1358 7.16651 20.55 4 25.7038 4C31.9849 4 37.1675 8.70317 37.9221 14.78C38.1593 14.7583 38.3996 14.7473 38.6424 14.7473C42.9645 14.7473 46.4683 18.251 46.4683 22.5732C46.4683 26.8953 42.9645 30.3991 38.6424 30.3991C38.4318 30.3991 38.223 30.3907 38.0166 30.3744Z" fill="white"/>
<path d="M30 32.4001H22.5L20 39.9001H22.5L21 45.9001L29 37.4001H25.5L30 32.4001Z" fill="#FCA326"/>
</svg>
