<svg width="50" height="50" viewBox="0 0 50 50" fill="none" xmlns="http://www.w3.org/2000/svg">
<circle cx="36.5993" cy="20.7998" r="10.7998" fill="#F19020" fill-opacity="0.6"/>
<circle cx="36.5993" cy="20.7998" r="8.39981" fill="#F19020"/>
<path fill-rule="evenodd" clip-rule="evenodd" d="M37.0166 39.9743V39.9989H12.3911V39.9987H12.3911C7.20453 39.9987 3 35.7942 3 30.6076C3 25.4211 7.20453 21.2165 12.3911 21.2165C12.6979 21.2165 13.0012 21.2312 13.3005 21.26C15.1358 16.7664 19.55 13.5999 24.7038 13.5999C30.9849 13.5999 36.1675 18.303 36.9221 24.3798C37.1593 24.3582 37.3996 24.3471 37.6424 24.3471C41.9645 24.3471 45.4683 27.8509 45.4683 32.173C45.4683 36.4951 41.9645 39.9989 37.6424 39.9989C37.4318 39.9989 37.223 39.9906 37.0166 39.9743Z" fill="#D3F3FF"/>
</svg>
